<?xml version="1.0" encoding="utf-8"?>
<!-- Generator: Adobe Illustrator 29.4.0, SVG Export Plug-In . SVG Version: 9.03 Build 0)  -->
<svg version="1.1" id="Layer_1" xmlns="http://www.w3.org/2000/svg" xmlns:xlink="http://www.w3.org/1999/xlink" x="0px" y="0px"
	 viewBox="0 0 76.8 50" style="enable-background:new 0 0 76.8 50;" xml:space="preserve">
<style type="text/css">
	.st0{fill:url(#SVGID_1_);}
	.st1{fill:url(#SVGID_00000011723386809539861860000007833298300685691797_);}
	.st2{fill:url(#SVGID_00000038407393855748030910000016730553264791416511_);}
	.st3{fill:#0072BC;}
</style>
<g>
	<g>
		
			<radialGradient id="SVGID_1_" cx="-65.7257" cy="566.3343" r="16.7897" gradientTransform="matrix(1.2825 0 0 1.2825 108.2162 -700.1483)" gradientUnits="userSpaceOnUse">
			<stop  offset="0" style="stop-color:#319745"/>
			<stop  offset="7.703183e-02" style="stop-color:#309647"/>
			<stop  offset="0.178" style="stop-color:#2A934F"/>
			<stop  offset="0.2921" style="stop-color:#1D8F5E"/>
			<stop  offset="0.4161" style="stop-color:#008973"/>
			<stop  offset="0.548" style="stop-color:#008288"/>
			<stop  offset="0.6842" style="stop-color:#007AA1"/>
			<stop  offset="0.8104" style="stop-color:#0072BC"/>
			<stop  offset="1" style="stop-color:#0072BC"/>
		</radialGradient>
		<path class="st0" d="M23.3,23.2V4.5h-1.5c0.1,0.7,0.1,1.4,0.1,2.1c0,9.6-7.8,17.4-17.4,17.4c-0.7,0-1.4,0-2.1-0.1v1.5h18.7
			C21.4,24.3,22.2,23.5,23.3,23.2z"/>
		
			<radialGradient id="SVGID_00000121237239428992951430000012854881400856189871_" cx="-65.7257" cy="566.3333" r="16.7888" gradientTransform="matrix(1.2825 0 0 1.2825 108.2162 -700.1483)" gradientUnits="userSpaceOnUse">
			<stop  offset="0" style="stop-color:#319745"/>
			<stop  offset="7.703183e-02" style="stop-color:#309647"/>
			<stop  offset="0.178" style="stop-color:#2A934F"/>
			<stop  offset="0.2921" style="stop-color:#1D8F5E"/>
			<stop  offset="0.4161" style="stop-color:#008973"/>
			<stop  offset="0.548" style="stop-color:#008288"/>
			<stop  offset="0.6842" style="stop-color:#007AA1"/>
			<stop  offset="0.8104" style="stop-color:#0072BC"/>
			<stop  offset="1" style="stop-color:#0072BC"/>
		</radialGradient>
		<path style="fill:url(#SVGID_00000121237239428992951430000012854881400856189871_);" d="M21.1,26.8H2.4v1.5
			c0.7-0.1,1.4-0.1,2.1-0.1c9.6,0,17.4,7.8,17.4,17.4c0,0.7,0,1.4-0.1,2.1h1.4V28.9C22.2,28.7,21.4,27.9,21.1,26.8z"/>
		
			<radialGradient id="SVGID_00000018947214088761126390000004505328764915761039_" cx="-65.7233" cy="566.3333" r="16.8" gradientTransform="matrix(1.2825 0 0 1.2825 108.2162 -700.1483)" gradientUnits="userSpaceOnUse">
			<stop  offset="0" style="stop-color:#319745"/>
			<stop  offset="7.703183e-02" style="stop-color:#309647"/>
			<stop  offset="0.178" style="stop-color:#2A934F"/>
			<stop  offset="0.2921" style="stop-color:#1D8F5E"/>
			<stop  offset="0.4161" style="stop-color:#008973"/>
			<stop  offset="0.548" style="stop-color:#008288"/>
			<stop  offset="0.6842" style="stop-color:#007AA1"/>
			<stop  offset="0.8104" style="stop-color:#0072BC"/>
			<stop  offset="1" style="stop-color:#0072BC"/>
		</radialGradient>
		<path style="fill:url(#SVGID_00000018947214088761126390000004505328764915761039_);" d="M26.8,26.8c-0.3,1-1.1,1.8-2.1,2.1v18.7
			h1.5C26.1,47,26,46.3,26,45.6c0-9.6,7.8-17.4,17.4-17.4c0.7,0,1.4,0,2.1,0.1v-1.5H26.8z"/>
	</g>
	<g>
		<path class="st3" d="M26.3,4.4c0-1.1,0.9-2,2.2-2c1.3,0,2.2,0.8,2.2,2c0,1.2-0.9,2.1-2.2,2.1C27.2,6.5,26.3,5.6,26.3,4.4z"/>
		<rect x="26.7" y="8.9" class="st3" width="3.4" height="14.6"/>
		<path class="st3" d="M46.5,23.4l-3.9-5.6c-0.2,0-0.5,0-0.7,0h-4.3v5.6H34V4.3h7.9c5,0,8.1,2.6,8.1,6.8c0,2.9-1.5,5-4.1,6l4.4,6.3
			H46.5z M41.7,7.3h-4.2v7.6h4.2c3.1,0,4.7-1.4,4.7-3.8C46.4,8.7,44.8,7.3,41.7,7.3z"/>
		<path class="st3" d="M53,4.3h3.5v19.1H53V4.3z"/>
		<path class="st3" d="M59.1,21.4l1.2-2.8c1.5,1.2,4,2.1,6.3,2.1c3,0,4.2-1.1,4.2-2.5c0-4.1-11.4-1.4-11.4-8.5
			c0-3.1,2.5-5.7,7.7-5.7c2.3,0,4.7,0.6,6.4,1.7l-1.1,2.8c-1.7-1-3.6-1.5-5.3-1.5c-2.9,0-4.1,1.1-4.1,2.6c0,4.1,11.3,1.4,11.3,8.4
			c0,3.1-2.5,5.7-7.7,5.7C63.7,23.7,60.7,22.8,59.1,21.4z"/>
	</g>
</g>
</svg>
